<svg xmlns="http://www.w3.org/2000/svg" viewBox="0 0 320 320" width="320" height="320">
  <!-- SafeStreets — The March — Sage Palette — Final -->
  <!-- bg -->
  <rect width="320" height="320" fill="#faf8f4"/>
  <!-- road -->
  <rect x="0" y="230" width="320" height="90" fill="#2a2a2a"/>
  <!-- crosswalk -->
  <rect x="22"  y="230" width="18" height="90" fill="#ffffff"/>
  <rect x="58"  y="230" width="18" height="90" fill="#ffffff"/>
  <rect x="94"  y="230" width="18" height="90" fill="#ffffff"/>
  <rect x="130" y="230" width="18" height="90" fill="#ffffff"/>
  <rect x="166" y="230" width="18" height="90" fill="#ffffff"/>
  <rect x="202" y="230" width="18" height="90" fill="#ffffff"/>
  <rect x="238" y="230" width="18" height="90" fill="#ffffff"/>
  <rect x="274" y="230" width="18" height="90" fill="#ffffff"/>
  <!-- figure -->
  <circle cx="160" cy="52" r="30" fill="#e8941a"/>
  <polygon points="126,82 194,82 204,180 116,180" fill="#e8941a"/>
  <line x1="126" y1="102" x2="72"  y2="152" stroke="#e8941a" stroke-width="22" stroke-linecap="round"/>
  <line x1="194" y1="98"  x2="252" y2="142" stroke="#e8941a" stroke-width="22" stroke-linecap="round"/>
  <line x1="128" y1="180" x2="90"  y2="242" stroke="#e8941a" stroke-width="22" stroke-linecap="round"/>
  <line x1="192" y1="180" x2="218" y2="238" stroke="#e8941a" stroke-width="22" stroke-linecap="round"/>
</svg>
